<svg xmlns="http://www.w3.org/2000/svg" width="900" height="1000" viewBox="0 0 900 1000">
  <rect width="900" height="1000" rx="28" fill="#0f2030" stroke="#2f6d84" stroke-width="2"/>
  
  <text x="40" y="70" font-family="Segoe UI, Arial" font-size="30" font-weight="700" fill="#f5fbff">VIBRATION LEVEL ASSIGNMENT</text>
  
  <!-- FRONT -->
  <rect x="40" y="110" width="820" height="110" rx="18" fill="#142b3f" stroke="#365c74"/>
  <text x="60" y="155" font-family="Segoe UI, Arial" font-size="20" font-weight="600" fill="#ffffff">FRONT</text>
  
  <rect x="140" y="140" width="40" height="32" rx="8" fill="#2f7eb8"/>
  <text x="160" y="161" text-anchor="middle" font-family="Segoe UI, Arial" font-size="16" fill="#ffffff">0</text>
  
  <rect x="190" y="140" width="40" height="32" rx="8" fill="#20a06a"/>
  <text x="210" y="161" text-anchor="middle" font-family="Segoe UI, Arial" font-size="16" fill="#ffffff">1</text>
  
  <rect x="240" y="140" width="40" height="32" rx="8" fill="#f1b100"/>
  <text x="260" y="161" text-anchor="middle" font-family="Segoe UI, Arial" font-size="16" fill="#ffffff">2</text>
  
  <rect x="290" y="140" width="40" height="32" rx="8" fill="#c94c4c"/>
  <text x="310" y="161" text-anchor="middle" font-family="Segoe UI, Arial" font-size="16" fill="#ffffff">3</text>
  
  <text x="360" y="161" font-family="Segoe UI, Arial" font-size="18" fill="#8fd8ff">[ 20 sec ]</text>
  
  <!-- TEMPLE -->
  <rect x="40" y="240" width="820" height="110" rx="18" fill="#142b3f" stroke="#365c74"/>
  <text x="60" y="285" font-family="Segoe UI, Arial" font-size="20" font-weight="600" fill="#ffffff">TEMPLE</text>
  
  <rect x="140" y="270" width="40" height="32" rx="8" fill="#2f7eb8"/>
  <text x="160" y="291" text-anchor="middle" font-family="Segoe UI, Arial" font-size="16" fill="#ffffff">0</text>
  
  <rect x="190" y="270" width="40" height="32" rx="8" fill="#20a06a"/>
  <text x="210" y="291" text-anchor="middle" font-family="Segoe UI, Arial" font-size="16" fill="#ffffff">1</text>
  
  <rect x="240" y="270" width="40" height="32" rx="8" fill="#2f7eb8"/>
  <text x="260" y="291" text-anchor="middle" font-family="Segoe UI, Arial" font-size="16" fill="#ffffff">2</text>
  
  <rect x="290" y="270" width="40" height="32" rx="8" fill="#c94c4c"/>
  <text x="310" y="291" text-anchor="middle" font-family="Segoe UI, Arial" font-size="16" fill="#ffffff">3</text>
  
  <text x="360" y="291" font-family="Segoe UI, Arial" font-size="18" fill="#8fd8ff">[ 15 sec ]</text>
  
  <!-- EAR -->
  <rect x="40" y="370" width="820" height="110" rx="18" fill="#142b3f" stroke="#365c74"/>
  <text x="60" y="415" font-family="Segoe UI, Arial" font-size="20" font-weight="600" fill="#ffffff">EAR</text>
  
  <rect x="140" y="400" width="40" height="32" rx="8" fill="#2f7eb8"/>
  <text x="160" y="421" text-anchor="middle" font-family="Segoe UI, Arial" font-size="16" fill="#ffffff">0</text>
  
  <rect x="190" y="400" width="40" height="32" rx="8" fill="#20a06a"/>
  <text x="210" y="421" text-anchor="middle" font-family="Segoe UI, Arial" font-size="16" fill="#ffffff">1</text>
  
  <rect x="240" y="400" width="40" height="32" rx="8" fill="#f1b100"/>
  <text x="260" y="421" text-anchor="middle" font-family="Segoe UI, Arial" font-size="16" fill="#ffffff">2</text>
  
  <rect x="290" y="400" width="40" height="32" rx="8" fill="#c94c4c"/>
  <text x="310" y="421" text-anchor="middle" font-family="Segoe UI, Arial" font-size="16" fill="#ffffff">3</text>
  
  <text x="360" y="421" font-family="Segoe UI, Arial" font-size="18" fill="#8fd8ff">[ 25 sec ]</text>
  
  <!-- BACK -->
  <rect x="40" y="500" width="820" height="110" rx="18" fill="#142b3f" stroke="#365c74"/>
  <text x="60" y="545" font-family="Segoe UI, Arial" font-size="20" font-weight="600" fill="#ffffff">BACK</text>
  
  <rect x="140" y="530" width="40" height="32" rx="8" fill="#2f7eb8"/>
  <text x="160" y="551" text-anchor="middle" font-family="Segoe UI, Arial" font-size="16" fill="#ffffff">0</text>
  
  <rect x="190" y="530" width="40" height="32" rx="8" fill="#20a06a"/>
  <text x="210" y="551" text-anchor="middle" font-family="Segoe UI, Arial" font-size="16" fill="#ffffff">1</text>
  
  <rect x="240" y="530" width="40" height="32" rx="8" fill="#f1b100"/>
  <text x="260" y="551" text-anchor="middle" font-family="Segoe UI, Arial" font-size="16" fill="#ffffff">2</text>
  
  <rect x="290" y="530" width="40" height="32" rx="8" fill="#20a06a"/>
  <text x="310" y="551" text-anchor="middle" font-family="Segoe UI, Arial" font-size="16" fill="#ffffff">3</text>
  
  <text x="360" y="551" font-family="Segoe UI, Arial" font-size="18" fill="#8fd8ff">[ 30 sec ]</text>
</svg>